<?xml version="1.0" standalone="no"?>
<!DOCTYPE svg PUBLIC "-//W3C//DTD SVG 20010904//EN"
 "http://www.w3.org/TR/2001/REC-SVG-20010904/DTD/svg10.dtd">
<svg version="1.0" xmlns="http://www.w3.org/2000/svg"
 width="600.000000pt" height="600.000000pt" viewBox="0 0 600.000000 600.000000"
 preserveAspectRatio="xMidYMid meet">

<g transform="translate(0.000000,600.000000) scale(0.100000,-0.100000)"
fill="#000000" stroke="none">
<path d="M0 3000 l0 -3000 3000 0 3000 0 0 3000 0 3000 -3000 0 -3000 0 0
-3000z m1593 2182 c5 -7 14 -9 20 -6 7 4 9 4 5 -1 -10 -11 103 -127 118 -121
11 4 52 -31 47 -40 -9 -13 -1 -25 13 -20 8 3 12 2 9 -4 -3 -6 -1 -10 4 -10 6
0 11 -6 11 -12 1 -13 65 -88 76 -88 4 0 -2 12 -11 28 -18 27 -18 27 2 9 11 -9
23 -14 28 -10 4 5 2 -2 -4 -15 -11 -21 -8 -29 29 -78 23 -29 46 -51 51 -48 5
3 8 2 7 -3 -3 -8 50 -88 81 -125 12 -14 18 -15 30 -6 13 10 14 10 4 -2 -7 -8
-13 -17 -13 -20 0 -12 37 -50 42 -44 3 2 6 -7 6 -22 0 -15 7 -33 16 -40 9 -6
16 -16 15 -20 -4 -16 13 -44 22 -38 5 3 6 -1 3 -9 -3 -8 5 -25 18 -39 13 -13
17 -16 9 -6 -8 10 -10 18 -4 18 6 0 19 -17 28 -37 23 -49 45 -74 58 -66 5 3 7
1 4 -4 -4 -6 0 -17 9 -24 19 -16 70 -123 86 -183 6 -24 14 -43 17 -41 3 1 7
-17 7 -42 2 -50 21 -95 38 -87 6 3 2 -2 -8 -10 -15 -12 -16 -16 -5 -16 12 0
12 -2 -1 -10 -30 -18 -4 -18 30 1 24 14 28 19 12 15 -13 -2 -20 0 -16 6 3 5
15 7 25 5 28 -8 91 12 83 25 -4 6 -3 8 4 5 5 -4 52 4 104 17 118 31 175 35
318 24 127 -9 246 -38 299 -71 23 -14 32 -16 27 -6 -5 9 -3 9 6 -2 7 -9 19
-14 27 -11 8 3 11 0 7 -6 -8 -14 18 -22 35 -10 11 8 10 9 -4 4 -10 -3 -16 -2
-13 3 3 4 20 8 38 9 29 0 30 -1 11 -9 -34 -13 -28 -22 26 -42 64 -23 65 -22
58 18 -3 19 -2 35 2 35 5 0 12 24 15 52 9 62 24 131 40 173 6 17 11 32 11 35
1 3 9 19 18 37 20 38 21 47 5 37 -7 -4 -8 -3 -4 5 4 6 12 9 17 6 5 -4 9 -2 9
3 0 4 9 18 20 30 11 12 19 25 18 29 -2 4 0 8 4 8 18 0 89 81 85 97 -3 10 -1
16 5 15 5 -1 18 12 27 30 10 17 26 44 36 60 16 23 16 26 2 14 -13 -10 -17 -10
-17 -1 0 6 9 14 19 17 20 5 36 31 26 42 -3 3 -11 -1 -16 -9 -9 -13 -10 -13 -6
0 2 8 12 15 23 15 11 0 19 7 19 17 0 9 4 20 9 25 5 5 6 2 2 -7 -4 -8 1 -4 11
10 10 13 39 50 66 82 26 31 47 60 47 63 0 3 11 18 24 33 14 15 25 31 25 35 0
5 7 14 17 21 14 11 15 16 4 35 -9 19 -9 22 0 16 8 -5 11 -3 8 6 -3 8 -11 13
-17 11 -7 -1 -10 2 -6 8 5 8 11 8 19 1 7 -6 16 -8 20 -4 3 4 14 8 22 9 9 1 13
-1 9 -4 -4 -4 -10 -6 -13 -6 -11 2 -35 -37 -27 -44 4 -4 17 6 29 22 11 15 51
57 87 93 36 35 75 82 85 103 10 22 25 40 32 40 7 0 11 4 7 9 -3 5 0 13 6 17 7
4 9 3 5 -4 -3 -6 -2 -13 4 -17 9 -6 14 8 11 28 -1 5 3 6 9 2 6 -3 7 -12 3 -18
-4 -7 1 -6 10 2 10 8 19 12 22 9 2 -2 5 -145 6 -318 0 -173 5 -342 10 -375 17
-121 31 -261 30 -300 -1 -67 2 -68 124 -34 60 18 116 39 123 48 8 9 10 10 6 2
-5 -10 -3 -13 7 -9 8 3 39 13 69 23 63 20 82 33 73 48 -3 6 -1 7 6 3 6 -4 9
-11 6 -16 -7 -11 54 8 72 22 7 5 17 7 22 4 5 -4 13 -2 16 4 4 6 16 8 27 4 14
-4 18 -2 14 5 -4 7 -1 9 7 5 23 -8 128 14 147 31 9 8 21 15 26 15 5 0 2 -5 -6
-11 -12 -8 -11 -9 5 -5 11 3 50 13 88 22 37 9 67 21 67 26 0 5 -6 6 -12 2 -7
-4 -9 -3 -5 1 13 15 36 14 30 -1 -3 -8 1 -14 8 -14 11 0 11 -2 2 -8 -7 -4 -14
-17 -16 -27 -2 -11 -9 -31 -14 -45 -7 -18 -7 -27 1 -32 8 -5 7 -11 -3 -20 -11
-11 -13 -11 -6 1 6 10 4 12 -4 7 -7 -5 -9 -16 -5 -28 4 -13 2 -18 -4 -14 -13
8 -26 -49 -16 -65 4 -8 3 -9 -5 -5 -11 7 -19 -4 -24 -39 -1 -11 -6 -26 -10
-32 -5 -7 -5 -18 -1 -25 5 -7 3 -8 -6 -3 -10 6 -12 3 -8 -13 4 -12 2 -20 -2
-17 -5 3 -16 -19 -26 -47 -24 -75 -26 -87 -10 -53 20 39 20 17 1 -26 -8 -19
-15 -27 -15 -19 -1 8 -9 -5 -19 -30 -11 -25 -15 -47 -9 -49 5 -1 2 -8 -6 -15
-21 -15 -69 -206 -52 -206 2 0 11 -3 20 -6 19 -7 22 26 5 58 -6 11 -8 23 -4
26 3 3 8 -4 12 -16 3 -12 8 -20 12 -17 4 2 5 -10 3 -26 -4 -29 -3 -30 24 -23
16 4 35 11 42 17 9 7 11 6 6 -6 -3 -9 -13 -18 -22 -20 -10 -3 -3 -3 14 -2 l30
3 0 -58 c-1 -32 -4 -56 -7 -54 -4 2 -10 -3 -13 -11 -7 -21 17 -29 43 -16 11 6
23 11 28 11 4 -1 -3 -7 -16 -14 l-24 -13 44 -26 c32 -20 46 -23 56 -15 11 8
12 7 7 -7 -6 -14 -4 -16 7 -9 20 12 40 14 33 3 -3 -5 2 -9 11 -9 9 0 13 4 10
10 -4 6 1 7 11 3 11 -4 13 -8 6 -11 -7 -2 -10 -7 -7 -12 3 -4 -5 -6 -17 -3
l-23 5 22 -16 c30 -22 74 -40 111 -44 7 -1 11 -6 8 -11 -3 -4 35 -27 85 -50
77 -35 93 -39 112 -29 20 10 21 10 8 -5 -7 -10 -11 -17 -8 -17 3 0 13 -3 23
-7 12 -4 15 -3 10 5 -5 8 -2 10 8 6 9 -3 13 -11 9 -17 -4 -6 0 -8 10 -4 10 3
17 2 17 -3 0 -5 10 -10 23 -12 12 -2 22 -9 22 -16 0 -7 7 -17 15 -22 9 -6 10
-10 3 -10 -6 0 -15 5 -18 10 -3 6 -11 10 -16 10 -6 0 -7 -6 -2 -12 13 -22 12
-37 -4 -31 -12 5 -12 7 -1 14 9 6 7 9 -8 9 -12 0 -37 -11 -57 -24 -19 -13 -44
-27 -55 -30 -10 -4 -28 -16 -38 -28 -15 -17 -16 -20 -3 -16 9 4 22 3 28 -2 9
-5 4 -7 -13 -7 -15 0 -29 3 -32 8 -3 5 -32 -10 -64 -32 -62 -42 -73 -53 -42
-42 9 3 14 2 9 -2 -4 -5 -16 -9 -27 -10 -33 -2 -160 -67 -153 -78 3 -6 1 -7
-5 -3 -12 7 -83 -23 -95 -41 -4 -7 -13 -13 -20 -13 -7 0 -6 4 3 10 9 6 10 10
3 10 -25 0 -20 -17 15 -46 21 -17 47 -36 59 -43 16 -8 22 -19 20 -41 -1 -17
-5 -30 -9 -30 -4 0 -7 -10 -5 -21 1 -12 -4 -23 -11 -25 -7 -1 -8 0 -2 3 5 2
10 9 10 14 0 6 -11 2 -24 -8 l-24 -18 42 -37 c22 -21 46 -36 53 -33 8 2 10 -2
6 -12 -4 -9 -2 -14 3 -10 6 3 10 -9 10 -29 0 -19 -4 -34 -9 -34 -4 0 -7 7 -5
16 2 10 -3 19 -11 22 -9 3 -11 0 -6 -8 5 -9 4 -11 -4 -6 -6 4 -17 3 -24 -2 -7
-6 -45 -27 -84 -46 -40 -20 -73 -39 -73 -42 0 -4 7 -3 16 0 8 3 12 2 9 -3 -3
-6 -14 -9 -25 -8 -10 1 -17 4 -15 7 2 3 -22 -2 -53 -12 -31 -9 -76 -22 -99
-28 l-43 -11 15 -35 c8 -20 12 -40 9 -45 -2 -5 2 -21 10 -36 8 -16 15 -22 16
-15 0 7 4 11 9 8 5 -3 7 -14 4 -24 -3 -11 10 -37 31 -65 20 -26 36 -50 36 -53
0 -3 -13 -16 -28 -29 -22 -18 -28 -32 -27 -55 1 -17 -1 -33 -5 -35 -4 -3 -7 8
-6 23 1 21 -4 27 -19 27 -11 0 -20 -7 -20 -15 0 -8 6 -14 13 -12 8 1 11 -2 7
-8 -3 -6 15 -38 40 -71 26 -34 44 -64 41 -67 -8 -7 -60 -4 -156 8 -41 6 -97 8
-125 5 -38 -3 -44 -2 -25 5 25 9 24 9 -5 8 -16 0 -37 2 -45 5 -51 18 -105 25
-112 14 -5 -8 -8 -6 -8 6 0 9 -4 17 -8 17 -9 0 -5 -139 7 -259 8 -83 0 -95
-46 -64 -15 10 -41 20 -58 21 -23 2 -27 1 -15 -7 26 -18 1 -12 -45 12 -24 12
-45 26 -45 30 0 4 8 3 19 -2 10 -6 22 -7 26 -3 5 4 4 1 0 -7 -6 -11 -4 -13 9
-8 10 4 15 3 11 -3 -7 -11 8 -14 19 -3 3 4 -19 20 -50 35 -41 20 -60 25 -69
18 -9 -8 -14 -6 -19 5 -3 9 -2 13 4 10 6 -3 10 -4 10 -1 0 12 -85 46 -88 36
-2 -5 -7 -8 -12 -5 -5 3 -11 -3 -14 -12 -8 -25 -65 -62 -122 -79 -26 -8 -52
-20 -56 -27 -6 -9 -8 -9 -8 1 0 7 -4 10 -10 7 -5 -3 -10 -15 -10 -26 0 -11 -7
-31 -16 -44 -11 -17 -12 -25 -5 -25 7 0 10 -4 6 -9 -3 -5 -1 -12 5 -16 5 -3
10 -14 10 -25 0 -10 7 -20 15 -24 8 -3 15 -13 15 -23 0 -15 -2 -15 -9 -4 -8
12 -11 9 -16 -12 -4 -15 -20 -38 -36 -51 -18 -16 -24 -26 -16 -29 6 -3 2 -6
-10 -6 -13 -1 -23 4 -23 9 0 6 -10 10 -23 10 -12 0 -33 7 -45 16 -12 8 -27 12
-34 8 -7 -4 -8 -3 -4 4 4 6 0 26 -7 45 -10 23 -12 39 -5 51 9 15 7 16 -10 5
-19 -12 -19 -14 -5 -36 9 -13 13 -26 9 -30 -3 -3 -6 -1 -6 5 0 20 -29 40 -51
35 -15 -4 -17 -8 -8 -14 8 -5 2 -7 -17 -7 -16 1 -39 -4 -49 -9 -11 -6 -54 -15
-95 -21 -41 -6 -95 -14 -120 -18 -54 -8 -118 -8 -183 0 -28 3 -46 2 -42 -3 6
-11 -22 -8 -32 4 -4 4 -3 5 4 1 6 -3 15 -1 18 5 4 5 14 8 22 4 13 -4 14 -3 3
10 -9 11 -16 12 -25 5 -9 -8 -14 -5 -18 9 -3 14 -1 18 9 14 10 -4 12 0 8 11
-3 9 -11 13 -17 9 -5 -3 -7 -1 -4 5 4 5 -2 48 -12 94 -11 45 -21 97 -23 113
-2 22 -8 29 -20 27 -182 -30 -349 -29 -460 4 -13 4 -18 0 -18 -16 0 -11 -8
-56 -17 -98 -9 -42 -16 -87 -16 -99 1 -13 -3 -21 -7 -18 -4 3 -11 -2 -14 -11
-3 -8 -2 -13 2 -10 4 2 8 -4 9 -14 1 -11 -2 -22 -8 -25 -5 -3 -6 1 -3 9 3 9 1
16 -5 16 -6 0 -12 -6 -12 -12 -1 -7 -2 -19 -3 -27 0 -8 -7 -15 -14 -17 -7 -1
-8 0 -2 3 5 2 10 9 10 14 0 8 -6 7 -47 -7 -10 -3 -53 -7 -95 -8 -43 0 -70 1
-61 5 10 3 -16 9 -57 12 -103 9 -130 14 -200 42 -34 13 -69 22 -78 19 -12 -4
-13 -3 -4 3 15 12 -53 47 -71 37 -7 -4 -9 -3 -4 1 8 10 -41 65 -57 65 -6 0 -4
-5 4 -10 10 -7 11 -10 2 -10 -7 0 -17 10 -22 22 -5 13 -19 34 -30 47 -19 22
-23 23 -45 11 -14 -7 -28 -10 -32 -7 -3 4 2 7 13 8 21 1 -6 11 -61 22 l-30 6
30 -14 c17 -8 25 -14 18 -15 -20 0 -63 22 -58 31 3 4 -5 11 -17 15 -13 4 -31
16 -41 28 -12 13 -28 20 -45 19 l-27 -3 24 10 c17 8 21 14 14 21 -13 13 -56 2
-48 -12 3 -5 0 -6 -8 -3 -8 3 -20 -2 -27 -11 -7 -8 -20 -15 -29 -15 -9 0 -25
-6 -36 -14 -11 -7 -24 -15 -30 -16 -35 -9 -115 -52 -110 -60 3 -6 0 -7 -8 -4
-8 3 -18 0 -22 -5 -3 -6 -11 -8 -17 -5 -7 5 -9 1 -5 -9 3 -10 2 -17 -3 -17
-11 0 -13 14 -10 78 1 40 -12 56 -24 30 -3 -7 -3 -2 0 12 4 14 11 28 16 31 5
3 12 52 15 107 l6 101 -34 -10 c-19 -6 -45 -13 -59 -16 -14 -2 -32 -7 -40 -10
-8 -3 -28 -5 -45 -4 l-30 1 28 -12 c27 -12 25 -13 -30 -14 -47 -1 -52 0 -28 7
22 6 15 7 -25 4 -30 -3 -77 -5 -103 -5 -27 0 -46 -3 -43 -8 2 -4 -19 -7 -47
-6 -69 3 -67 2 -67 15 0 8 5 8 15 -1 12 -10 15 -10 15 4 0 9 -4 16 -10 16 -5
0 -10 5 -10 11 0 8 5 7 15 -1 12 -10 19 -10 27 -2 9 9 8 12 -3 13 -7 0 -4 4 9
10 13 5 20 13 17 19 -3 5 -1 10 4 10 6 0 21 17 34 37 l24 37 -51 27 c-57 30
-67 51 -38 82 10 12 23 29 27 37 7 12 6 13 -6 5 -8 -5 -5 -1 7 10 27 25 53 72
33 59 -7 -4 1 10 18 32 35 43 53 94 33 94 -6 0 -8 -6 -5 -13 4 -6 0 -5 -7 4
-15 19 -137 52 -188 51 -22 -1 -29 2 -21 7 17 11 -4 25 -21 15 -7 -4 -10 -3
-5 1 8 9 -82 59 -91 51 -3 -3 -12 2 -21 12 -21 24 -46 33 -58 21 -6 -6 -8 3
-7 22 2 29 14 55 14 30 0 -7 5 -9 11 -6 6 4 8 14 5 22 -3 8 -1 11 4 8 5 -3 15
-1 22 5 7 6 22 17 33 25 20 13 20 14 -6 42 -37 41 -54 84 -37 94 7 5 16 9 20
9 4 0 22 14 40 31 31 30 32 31 8 25 -14 -3 -19 -3 -12 0 6 3 10 10 6 15 -7 12
7 11 26 0 8 -6 18 -7 23 -4 12 8 -44 35 -60 28 -8 -2 -12 -1 -9 4 7 10 -42 33
-55 26 -5 -4 -9 -2 -9 3 0 6 -7 13 -16 16 -15 6 -15 4 -3 -11 13 -17 13 -17
-7 0 -11 9 -30 17 -42 17 -12 0 -22 5 -22 11 0 6 7 8 16 5 8 -3 12 -2 9 4 -3
6 -11 10 -17 10 -5 0 -30 14 -55 30 -24 17 -41 25 -38 18 4 -7 1 -6 -7 2 -28
34 -74 57 -105 55 -18 -1 -30 2 -27 7 3 5 15 6 27 2 22 -6 22 -6 2 9 -11 8
-23 13 -27 11 -5 -3 -8 0 -8 6 0 6 -8 14 -17 17 -10 4 -34 18 -53 31 -24 16
-42 21 -59 17 -21 -5 -23 -4 -12 8 9 12 8 16 -4 21 -21 8 -10 26 16 26 11 0
17 4 14 10 -3 5 0 7 8 4 8 -3 17 2 20 10 4 9 12 16 19 16 9 0 8 -3 -2 -10 -17
-11 -1 -13 24 -4 15 6 15 7 0 19 -16 11 -16 12 0 18 9 4 15 3 11 -2 -6 -11 15
-20 32 -13 7 2 10 9 6 15 -4 6 -1 7 7 2 7 -4 37 4 71 21 l59 28 -27 13 c-23
11 -24 12 -4 7 18 -5 22 -3 16 7 -5 8 1 6 12 -4 19 -17 22 -16 84 19 35 19 70
40 77 46 6 6 12 7 12 4 0 -4 9 -2 20 4 11 6 17 16 14 22 -4 6 -3 8 4 4 16 -9
103 36 98 51 -3 7 1 10 10 6 7 -3 14 0 14 6 0 6 -3 11 -7 11 -5 0 -9 27 -10
59 l-2 60 35 -6 c23 -4 34 -2 34 6 0 7 5 9 10 6 6 -3 10 1 10 10 0 15 2 15 17
-1 16 -15 17 -15 24 2 7 18 8 18 8 0 1 -11 3 -17 6 -14 10 10 -18 137 -28 131
-6 -3 -7 -1 -3 5 6 11 -62 231 -75 242 -3 3 -9 19 -12 35 -3 17 -14 48 -23 70
-10 22 -18 45 -20 51 -6 32 -47 133 -53 130 -4 -3 -6 7 -5 21 1 36 -24 105
-43 121 -10 7 -12 12 -5 12 7 0 12 5 12 11 0 5 -5 7 -12 3 -7 -5 -8 -3 -4 5 6
9 13 8 27 -5 10 -9 32 -17 49 -18 16 -1 30 -4 30 -7 0 -4 12 -9 28 -13 15 -3
38 -8 52 -11 15 -3 11 1 -10 9 -19 8 -30 15 -24 15 18 1 74 -20 74 -28 0 -4
51 -18 113 -31 61 -13 129 -29 150 -36 29 -10 36 -10 31 -1 -4 7 1 5 12 -4 25
-21 90 -42 131 -42 18 0 30 -4 27 -9 -3 -4 -3 -8 -1 -8 3 0 21 -7 42 -16 27
-11 35 -12 29 -2 -6 11 -5 11 8 0 18 -14 149 -54 156 -47 3 2 8 60 13 127 5
68 13 150 19 183 5 33 10 61 10 63 0 2 -4 0 -10 -3 -6 -4 -5 6 2 22 14 34 21
653 8 653 -5 0 -7 -6 -4 -13 3 -8 -2 -20 -11 -27 -9 -8 -15 -8 -15 -2 0 6 5
14 10 17 6 4 7 13 1 24 -8 14 -5 17 17 17 15 -1 31 -7 35 -14z m67 4 c-7 -7
-13 -7 -20 0 -6 6 -3 10 10 10 13 0 16 -4 10 -10z m2804 -2 c3 -8 2 -13 -3
-10 -4 3 -8 -60 -9 -140 0 -80 -3 -148 -7 -152 -7 -7 -5 298 2 311 6 11 10 9
17 -9z m-2791 -19 c-3 -9 -8 -14 -10 -11 -3 3 -2 9 2 15 9 16 15 13 8 -4z
m-28 -5 c3 -5 1 -10 -4 -10 -6 0 -11 5 -11 10 0 6 2 10 4 10 3 0 8 -4 11 -10z
m-88 -77 c-3 -10 -5 -2 -5 17 0 19 2 27 5 18 2 -10 2 -26 0 -35z m165 12 c3 3
11 -1 17 -9 10 -11 9 -14 -1 -12 -19 3 -41 18 -58 41 -12 17 -10 16 11 -3 14
-12 28 -20 31 -17z m35 8 c0 -9 -4 -10 -14 -2 -7 6 -13 12 -13 14 0 1 6 2 13
2 8 0 14 -6 14 -14z m2512 -3 c13 6 18 5 18 -4 0 -16 -40 -14 -43 3 -1 6 0 7
3 1 3 -6 11 -6 22 0z m-22 -57 c-22 -22 -29 -25 -39 -15 -11 11 -10 12 4 7 11
-4 21 1 30 14 7 12 17 21 23 21 5 0 -3 -12 -18 -27z m-53 -40 c4 -10 4 -14 0
-10 -4 4 -14 1 -22 -6 -13 -11 -14 -9 -1 11 17 26 15 26 23 5z m-2359 -3 c-3
-5 -1 -19 5 -30 6 -11 7 -20 2 -20 -6 0 -12 10 -15 22 -6 21 -1 38 9 38 3 0 2
-4 -1 -10z m78 -65 c-7 -21 -12 -19 -10 4 0 11 5 18 9 15 4 -3 5 -11 1 -19z
m68 -82 c2 1 -3 -5 -11 -14 -17 -19 -26 -16 -40 14 -11 21 -11 21 4 3 9 -11
19 -17 22 -13 4 4 1 15 -7 24 -13 17 -13 17 7 0 11 -9 23 -16 25 -14z m14 -40
c0 -14 -6 -27 -13 -29 -7 -1 -8 0 -2 3 17 8 11 26 -7 19 -15 -6 -15 -4 2 14
10 11 19 20 20 20 0 0 1 -12 0 -27z m2042 -1 c-17 -18 -51 -27 -41 -10 3 5 9
6 13 4 4 -3 14 4 21 14 8 11 16 17 19 15 2 -3 -3 -13 -12 -23z m-1982 -32 c3
-6 -1 -7 -9 -4 -18 7 -21 14 -7 14 6 0 13 -4 16 -10z m1888 -52 l-3 -33 15 30
c11 25 14 26 15 9 0 -11 -11 -31 -24 -43 l-25 -23 5 33 c9 62 23 84 17 27z
m-1895 -5 c-2 -12 2 -17 12 -15 8 2 12 0 8 -4 -4 -4 -3 -13 3 -21 6 -7 8 -13
4 -13 -13 0 -43 44 -38 57 7 19 14 16 11 -4z m-492 -127 c-4 -19 -10 -38 -15
-40 -4 -3 -3 15 2 39 12 52 23 53 13 1z m598 -2 c3 -8 2 -12 -4 -9 -6 3 -10
10 -10 16 0 14 7 11 14 -7z m2303 -86 c-3 -8 -6 -5 -6 6 -1 11 2 17 5 13 3 -3
4 -12 1 -19z m-3787 -113 c0 -7 -30 -13 -34 -7 -3 4 4 9 15 9 10 1 19 0 19 -2z
m3027 -17 c2 -17 0 -19 -7 -8 -5 8 -6 18 -4 22 8 12 10 10 11 -14z m1629 13
c-4 -5 -1 -12 4 -14 6 -3 5 -4 -2 -3 -15 3 -23 26 -8 26 6 0 9 -4 6 -9z
m-4606 -11 c0 -5 -7 -7 -15 -4 -8 4 -15 8 -15 10 0 2 7 4 15 4 8 0 15 -4 15
-10z m1580 -4 c0 -2 -8 -10 -17 -17 -16 -13 -17 -12 -4 4 13 16 21 21 21 13z
m2915 -14 c-3 -3 -11 0 -18 7 -9 10 -8 11 6 5 10 -3 15 -9 12 -12z m-2909 -22
c0 -12 -4 -16 -9 -11 -5 5 -6 14 -3 20 10 15 12 14 12 -9z m3111 4 c-3 -3 -12
-4 -19 -1 -8 3 -5 6 6 6 11 1 17 -2 13 -5z m-4810 -29 c4 -4 2 -5 -6 0 -11 6
-13 2 -9 -19 3 -14 2 -26 -2 -26 -4 0 -10 13 -12 29 -4 28 11 37 29 16z m363
-5 c18 -12 2 -12 -25 0 -13 6 -15 9 -5 9 8 0 22 -4 30 -9z m1409 -34 c0 -6 -5
-20 -10 -31 -8 -16 -8 -15 -4 8 3 15 1 37 -5 50 -11 21 -11 21 4 3 9 -11 16
-25 15 -30z m1251 0 c0 -26 -6 -18 -14 19 -5 22 -4 26 4 15 5 -8 10 -24 10
-34z m1340 22 c-12 -5 -25 -6 -28 -3 -3 3 0 5 7 5 7 0 10 4 7 9 -4 5 4 7 16 3
l22 -5 -24 -9z m-3870 3 c0 -5 -10 -11 -22 -14 -22 -6 -22 -6 -4 8 23 17 26
18 26 6z m1244 -7 c3 -8 2 -12 -4 -9 -6 3 -10 10 -10 16 0 14 7 11 14 -7z
m2501 -34 c-3 -5 -11 -10 -16 -10 -6 0 -7 5 -4 10 3 6 11 10 16 10 6 0 7 -4 4
-10z m-3458 -46 c-3 -3 -12 -4 -19 -1 -8 3 -5 6 6 6 11 1 17 -2 13 -5z m3298
-4 c17 -6 14 -9 -18 -15 -21 -4 -41 -5 -44 -1 -4 3 7 7 23 7 l29 1 -30 8 c-27
7 -28 8 -5 8 14 0 34 -3 45 -8z m-1148 -72 c-3 -8 -6 -5 -6 6 -1 11 2 17 5 13
3 -3 4 -12 1 -19z m980 16 c-3 -3 -12 -4 -19 -1 -8 3 -5 6 6 6 11 1 17 -2 13
-5z m-3845 -44 l-9 -24 -5 22 c-4 12 -2 20 3 16 5 -3 9 0 9 7 0 7 2 10 5 7 3
-3 2 -16 -3 -28z m2890 -19 c8 12 9 12 6 0 -6 -22 -28 -25 -27 -4 0 12 2 14 6
4 5 -11 7 -11 15 0z m-2859 -61 c-6 -7 -23 23 -23 40 0 8 6 4 13 -10 8 -14 12
-27 10 -30z m2860 15 c-3 -9 -8 -14 -10 -11 -3 3 -2 9 2 15 9 16 15 13 8 -4z
m-17 -71 c-4 -14 -9 -24 -12 -21 -3 2 -2 17 2 31 3 15 9 25 11 22 3 -3 2 -17
-1 -32z m-796 16 c-8 -5 -22 -9 -30 -9 -10 0 -8 3 5 9 27 12 43 12 25 0z m454
-9 c4 -5 -3 -7 -14 -4 -23 6 -26 13 -6 13 8 0 17 -4 20 -9z m2069 -11 c-5 -19
-23 -39 -23 -25 0 9 20 45 24 45 2 0 2 -9 -1 -20z m-1956 4 c-3 -3 -12 -4 -19
-1 -8 3 -5 6 6 6 11 1 17 -2 13 -5z m8 -34 c3 -6 -1 -7 -9 -4 -18 7 -21 14 -7
14 6 0 13 -4 16 -10z m-2585 -40 c0 -5 -5 -10 -11 -10 -5 0 -7 5 -4 10 3 6 8
10 11 10 2 0 4 -4 4 -10z m30 -31 c0 -6 -4 -7 -10 -4 -5 3 -10 11 -10 16 0 6
5 7 10 4 6 -3 10 -11 10 -16z m4410 -177 c-6 -2 -10 -11 -10 -19 0 -9 -2 -14
-5 -11 -4 3 -3 18 1 33 5 20 9 23 15 13 5 -7 4 -14 -1 -16z m-4343 -99 c-2
-16 -4 -5 -4 22 0 28 2 40 4 28 2 -13 2 -35 0 -50z m-91 -4 c3 -6 1 -16 -6
-22 -10 -9 -12 -8 -7 5 3 9 1 19 -6 22 -9 3 -9 5 0 5 6 1 15 -4 19 -10z m31
-35 c-3 -3 -12 -4 -19 -1 -8 3 -5 6 6 6 11 1 17 -2 13 -5z m-107 -149 c0 -2
-6 -5 -13 -8 -8 -3 -14 1 -14 8 0 7 6 11 14 8 7 -3 13 -6 13 -8z m20 -15 c-8
-5 -19 -10 -25 -10 -5 0 -3 5 5 10 8 5 20 10 25 10 6 0 3 -5 -5 -10z m4660
-13 c11 -5 9 -6 -4 -4 -11 1 -21 9 -23 17 -3 10 -2 11 4 4 4 -6 15 -14 23 -17z
m-4834 -29 c-10 -6 -22 -6 -26 -2 -5 5 3 10 18 11 22 1 24 0 8 -9z m54 -7 c0
-15 -17 -22 -36 -14 -16 6 -16 7 2 14 27 11 34 10 34 0z m4945 -1 c3 -6 -1 -7
-9 -4 -18 7 -21 14 -7 14 6 0 13 -4 16 -10z m-17 -34 c-7 -8 -15 -12 -17 -11
-5 6 10 25 20 25 5 0 4 -6 -3 -14z m-4988 -10 c0 -2 -7 -7 -16 -10 -8 -3 -12
-2 -9 4 6 10 25 14 25 6z m-65 -26 c-3 -5 -12 -10 -18 -10 -7 0 -6 4 3 10 19
12 23 12 15 0z m5184 -20 c-16 -11 5 -21 28 -14 17 5 17 5 1 -6 -13 -8 -23 -8
-40 2 -13 7 -26 11 -30 10 -5 -1 -4 19 1 35 1 2 12 -3 26 -9 16 -7 21 -14 14
-18z m-5273 -15 c9 -8 11 -15 6 -15 -5 0 -15 7 -22 15 -7 8 -9 15 -6 15 4 0
14 -7 22 -15z m5465 -52 c12 -16 12 -17 -1 -7 -8 6 -22 14 -30 17 -13 5 -12 6
1 6 9 1 23 -7 30 -16z m-5725 -78 c-1 -8 -5 -17 -8 -21 -5 -4 -4 16 1 34 3 9
9 -1 7 -13z m14 -30 c-7 -8 -17 -15 -23 -15 -6 0 -2 7 9 15 25 19 30 19 14 0z
m5805 -25 c3 -6 -1 -7 -9 -4 -18 7 -21 14 -7 14 6 0 13 -4 16 -10z m-5677 -40
c7 0 12 -5 12 -11 0 -14 -58 21 -65 40 -4 10 3 7 18 -7 13 -12 29 -22 35 -22z
m5507 -20 c3 -6 -1 -7 -9 -4 -18 7 -21 14 -7 14 6 0 13 -4 16 -10z m-5485 -16
c0 -8 -19 -13 -24 -6 -3 5 1 9 9 9 8 0 15 -2 15 -3z m5410 -28 c0 -2 -7 -7
-16 -10 -8 -3 -12 -2 -9 4 6 10 25 14 25 6z m-5290 -36 c-8 -5 -22 -9 -30 -9
-10 0 -8 3 5 9 27 12 43 12 25 0z m5277 -5 c-8 -9 -18 -10 -29 -4 -24 13 -23
14 11 15 23 1 26 -2 18 -11z m-5253 -13 c2 -4 -5 -9 -17 -9 -17 -2 -19 0 -7 7
18 12 18 12 24 2z m5089 -56 c4 -10 1 -13 -8 -9 -8 3 -12 9 -9 14 7 12 11 11
17 -5z m-37 -28 c-10 -6 -22 -6 -26 -2 -5 5 3 10 18 11 22 1 24 0 8 -9z m-112
-94 c3 -8 2 -12 -4 -9 -6 3 -10 10 -10 16 0 14 7 11 14 -7z m-4694 -4 c0 -5
-7 -7 -15 -4 -8 4 -15 8 -15 10 0 2 7 4 15 4 8 0 15 -4 15 -10z m4763 -3 c3
-9 -5 -13 -27 -14 -20 0 -23 1 -8 4 12 2 20 9 17 14 -4 5 -2 9 3 9 6 0 12 -6
15 -13z m-4786 -13 c-3 -3 -12 -4 -19 -1 -8 3 -5 6 6 6 11 1 17 -2 13 -5z
m4803 -36 c0 -6 -6 -5 -15 2 -8 7 -15 14 -15 16 0 2 7 1 15 -2 8 -4 15 -11 15
-16z m-4843 -36 c-15 -14 -15 -13 -11 9 5 19 3 21 -5 9 -6 -8 -11 -10 -11 -4
0 5 5 15 12 22 9 9 14 9 21 -4 6 -11 4 -21 -6 -32z m-16 -75 c-10 -9 -11 -8
-5 6 3 10 9 15 12 12 3 -3 0 -11 -7 -18z m4839 -40 c0 -5 -13 1 -30 13 -16 12
-30 24 -30 26 0 3 14 -3 30 -13 17 -9 30 -21 30 -26z m-4805 -97 c-3 -5 -12
-10 -18 -10 -7 0 -6 4 3 10 19 12 23 12 15 0z m4738 -27 c-20 -8 -15 -26 5
-18 14 5 15 4 5 -6 -10 -10 -16 -10 -24 -2 -13 13 -4 33 14 32 9 0 9 -2 0 -6z
m-4663 -13 c8 -5 11 -10 5 -10 -5 0 -17 5 -25 10 -8 5 -10 10 -5 10 6 0 17 -5
25 -10z m4625 -16 c13 -5 14 -8 3 -15 -19 -12 -25 -11 -25 6 0 17 0 17 22 9z
m35 -24 c-8 -5 -19 -10 -25 -10 -5 0 -3 5 5 10 8 5 20 10 25 10 6 0 3 -5 -5
-10z m-165 -30 c-3 -5 -16 -10 -28 -9 -21 0 -21 1 -2 9 28 12 37 12 30 0z
m-105 -24 c-24 -9 -30 -15 -20 -19 12 -4 11 -6 -2 -6 -10 -1 -18 4 -18 9 0 12
36 29 60 29 8 0 -1 -6 -20 -13z m-4113 -2 c-3 -3 -12 -4 -19 -1 -8 3 -5 6 6 6
11 1 17 -2 13 -5z m-67 -14 c11 -8 7 -9 -15 -4 -37 8 -45 14 -19 14 10 0 26
-5 34 -10z m4253 3 c-7 -2 -21 -2 -30 0 -10 3 -4 5 12 5 17 0 24 -2 18 -5z
m-4223 -119 c6 -6 5 -15 -1 -24 -9 -13 -10 -12 -5 2 3 10 1 20 -4 23 -4 3 -10
0 -12 -7 -3 -8 -6 -6 -10 4 -7 17 15 19 32 2z m4180 -34 c0 -5 -2 -10 -4 -10
-3 0 -8 5 -11 10 -3 6 -1 10 4 10 6 0 11 -4 11 -10z m11 -23 c-10 -9 -11 -8
-5 6 3 10 9 15 12 12 3 -3 0 -11 -7 -18z m-4261 -52 c-38 -28 -40 -29 -40 -16
0 6 12 16 28 24 43 23 49 19 12 -8z m4327 -27 c-3 -8 -6 -5 -6 6 -1 11 2 17 5
13 3 -3 4 -12 1 -19z m-4258 -78 c-10 -7 -10 -11 1 -25 11 -13 11 -18 0 -28
-10 -9 -11 -9 -5 1 4 8 -2 23 -16 38 -21 22 -21 24 -4 18 18 -7 19 -6 5 11
-14 17 -14 18 9 6 18 -10 20 -15 10 -21z m4194 -67 c-4 -10 -9 -11 -19 -2 -10
8 -11 14 -1 24 14 15 28 0 20 -22z m-3793 -57 c0 -2 -11 -6 -25 -8 -13 -3 -22
-1 -19 3 5 9 44 13 44 5z m3417 -12 c-3 -3 -12 -4 -19 -1 -8 3 -5 6 6 6 11 1
17 -2 13 -5z m-3397 -14 c0 -5 -2 -10 -4 -10 -3 0 -8 5 -11 10 -3 6 -1 10 4
10 6 0 11 -4 11 -10z m3567 -6 c-3 -3 -12 -4 -19 -1 -8 3 -5 6 6 6 11 1 17 -2
13 -5z m293 2 c0 -3 -4 -8 -10 -11 -5 -3 -10 -1 -10 4 0 6 5 11 10 11 6 0 10
-2 10 -4z m-192 -13 c-10 -2 -26 -2 -35 0 -10 3 -2 5 17 5 19 0 27 -2 18 -5z
m-682 -149 c-1 -8 -6 -17 -12 -21 -5 -4 -6 -4 -2 1 4 5 3 14 -2 21 -7 8 -5 12
4 12 8 0 13 -6 12 -13z m-1557 -86 c-18 -33 -24 -4 -8 35 12 28 14 29 17 10 2
-12 -2 -32 -9 -45z m436 52 c3 -6 -1 -7 -9 -4 -18 7 -21 14 -7 14 6 0 13 -4
16 -10z m-1678 -25 c-13 -9 -14 -14 -4 -25 7 -7 0 -5 -15 5 -31 19 -36 28 -13
18 9 -3 15 -2 14 3 -3 19 2 23 17 17 15 -6 15 -7 1 -18z m53 10 c7 -8 9 -15 6
-15 -4 0 -14 7 -22 15 -9 8 -11 15 -6 15 5 0 15 -7 22 -15z m1280 11 c0 -2
-16 -6 -35 -8 -19 -2 -35 0 -35 4 0 4 16 8 35 8 19 0 35 -2 35 -4z m1460 0 c0
-3 -4 -8 -10 -11 -5 -3 -10 -1 -10 4 0 6 5 11 10 11 6 0 10 -2 10 -4z m-2550
-10 c0 -11 -19 -15 -25 -6 -3 5 1 10 9 10 9 0 16 -2 16 -4z m1383 -3 c-7 -2
-19 -2 -25 0 -7 3 -2 5 12 5 14 0 19 -2 13 -5z m1082 -3 c-3 -5 -12 -10 -18
-10 -7 0 -6 4 3 10 19 12 23 12 15 0z m-1328 -16 c-3 -3 -12 -4 -19 -1 -8 3
-5 6 6 6 11 1 17 -2 13 -5z m240 0 c-3 -3 -12 -4 -19 -1 -8 3 -5 6 6 6 11 1
17 -2 13 -5z m80 -41 c-3 -10 -5 -2 -5 17 0 19 2 27 5 18 2 -10 2 -26 0 -35z
m1088 28 c-3 -6 -11 -11 -16 -11 -5 0 -4 6 3 14 14 16 24 13 13 -3z m-2380
-31 c1 -10 -2 -17 -6 -14 -4 2 -7 13 -6 24 2 23 10 17 12 -10z m2689 -19 c-5
-7 -24 11 -35 32 -11 20 -9 20 13 -3 13 -14 23 -27 22 -29z m-2654 5 c0 -3 -4
-8 -10 -11 -5 -3 -10 -1 -10 4 0 6 5 11 10 11 6 0 10 -2 10 -4z m-670 -36 c0
-5 -2 -10 -4 -10 -3 0 -8 5 -11 10 -3 6 -1 10 4 10 6 0 11 -4 11 -10z m730
-14 c0 -2 -7 -7 -16 -10 -8 -3 -12 -2 -9 4 6 10 25 14 25 6z m2097 -58 c-3 -8
-6 -5 -6 6 -1 11 2 17 5 13 3 -3 4 -12 1 -19z m-2061 -4 c18 -14 18 -14 -6 -3
-31 14 -36 19 -24 19 6 0 19 -7 30 -16z m39 7 c3 -5 1 -12 -5 -16 -5 -3 -10 1
-10 9 0 18 6 21 15 7z m2042 -33 c-3 -7 -5 -2 -5 12 0 14 2 19 5 13 2 -7 2
-19 0 -25z m-297 -26 c0 -4 -10 -9 -22 -9 -18 -2 -20 0 -8 7 18 12 30 13 30 2z
m25 -12 c3 -5 1 -10 -4 -10 -6 0 -11 5 -11 10 0 6 2 10 4 10 3 0 8 -4 11 -10z
m272 -12 c-3 -8 -6 -5 -6 6 -1 11 2 17 5 13 3 -3 4 -12 1 -19z m-1860 6 c-3
-3 -12 -4 -19 -1 -8 3 -5 6 6 6 11 1 17 -2 13 -5z m1440 0 c-3 -3 -12 -4 -19
-1 -8 3 -5 6 6 6 11 1 17 -2 13 -5z m63 -4 c-8 -5 -24 -9 -35 -9 -16 1 -16 2
5 9 35 11 48 11 30 0z m-120 -10 c-14 -4 -36 -8 -50 -8 l-25 0 25 8 c14 4 36
8 50 8 l25 0 -25 -8z m165 0 c3 -5 -1 -10 -9 -10 -9 0 -16 5 -16 10 0 6 4 10
9 10 6 0 13 -4 16 -10z m116 -38 c-7 -2 -18 1 -23 6 -8 8 -4 9 13 5 13 -4 18
-8 10 -11z m96 -28 c-3 -3 -12 -4 -19 -1 -8 3 -5 6 6 6 11 1 17 -2 13 -5z
m-92 -14 c-27 -12 -43 -12 -25 0 8 5 22 9 30 9 10 0 8 -3 -5 -9z"/>
<path d="M4334 5128 l-19 -21 28 18 c28 18 33 25 19 25 -5 0 -17 -10 -28 -22z"/>
<path d="M1605 5005 c-4 -59 -5 -176 -2 -259 4 -114 1 -185 -13 -291 -10 -77
-21 -184 -24 -237 -9 -146 -3 -140 -113 -112 -51 13 -175 50 -275 83 -101 32
-233 68 -294 80 -61 12 -133 28 -159 36 -27 8 -51 12 -53 10 -5 -4 23 -86 131
-390 64 -181 125 -392 115 -400 -2 -1 -36 -7 -76 -13 -41 -6 -76 -12 -78 -14
-2 -2 3 -27 11 -56 l13 -52 -71 -40 c-101 -57 -434 -223 -482 -241 l-40 -15
90 -54 c50 -30 115 -71 145 -91 72 -49 250 -136 319 -156 l55 -15 -55 -52
c-30 -29 -65 -59 -78 -68 -23 -16 -23 -18 -8 -42 9 -13 32 -30 52 -37 19 -7
35 -15 35 -19 -1 -3 -27 -25 -59 -50 -32 -25 -56 -49 -53 -54 14 -23 215 -106
310 -127 83 -19 102 -26 102 -41 0 -21 -104 -224 -128 -251 -16 -18 -15 -20 6
-37 12 -10 40 -21 63 -25 47 -8 47 -10 -12 -96 -22 -33 -39 -62 -37 -65 9 -8
267 26 355 47 51 13 94 21 96 18 2 -2 0 -40 -4 -84 -4 -44 -8 -115 -8 -157
l-1 -77 157 75 158 75 15 -22 c49 -74 92 -99 200 -115 37 -6 57 -18 112 -70
120 -113 253 -161 471 -171 113 -5 129 -4 147 12 25 23 46 87 66 205 9 52 17
96 19 98 2 2 37 -4 79 -12 94 -20 274 -20 381 -1 44 8 83 15 86 15 4 0 10 -27
13 -61 9 -79 42 -207 61 -236 14 -21 22 -23 105 -23 181 0 343 40 451 113 45
30 55 33 80 24 37 -14 67 11 75 64 6 35 10 39 43 45 93 15 132 35 168 85 19
27 36 49 38 49 2 0 72 -34 156 -75 84 -41 154 -74 155 -72 2 1 -1 72 -6 157
-5 85 -6 157 -4 160 3 2 44 -5 92 -17 78 -20 125 -27 310 -48 28 -3 52 -4 52
-2 0 3 -20 35 -45 71 -25 37 -45 71 -45 75 0 4 22 13 49 20 65 16 77 31 52 62
-22 29 -118 215 -126 247 -5 17 -2 22 12 22 53 1 219 52 306 95 53 27 97 52
97 57 0 4 -25 26 -55 49 -55 42 -67 59 -41 59 17 0 76 48 76 62 0 5 -33 40
-72 77 l-73 68 55 16 c75 22 242 105 325 161 37 26 104 68 148 93 66 38 77 48
61 54 -104 41 -236 105 -370 177 -224 121 -208 107 -193 164 7 26 10 50 7 53
-3 3 -37 11 -74 17 -38 6 -70 12 -72 14 -2 1 4 38 13 82 15 74 44 164 185 561
28 79 49 145 47 147 -1 2 -37 -6 -79 -17 -42 -10 -120 -28 -172 -38 -53 -11
-181 -47 -284 -80 -221 -71 -340 -102 -347 -91 -3 4 -9 70 -15 146 -6 77 -17
180 -25 229 -11 64 -15 169 -15 370 l0 280 -96 -95 c-139 -137 -340 -392 -418
-530 -38 -69 -92 -145 -132 -189 -99 -110 -140 -218 -164 -427 -6 -54 -12 -99
-14 -101 -5 -6 -153 54 -241 97 -131 64 -184 75 -390 75 -171 0 -184 -2 -265
-29 -66 -22 -192 -76 -241 -103 -3 -2 -11 35 -18 81 -29 207 -70 312 -162 413
-37 40 -91 117 -128 182 -79 141 -250 361 -397 511 l-112 114 -7 -109z m114
-57 c148 -158 297 -355 376 -495 32 -56 77 -124 101 -151 28 -32 44 -60 44
-76 0 -25 -3 -26 -52 -26 -65 0 -214 -24 -288 -46 -119 -35 -274 -130 -356
-216 -77 -80 -163 -226 -199 -335 -19 -59 4 -52 -244 -74 -106 -9 -135 -9
-141 1 -4 7 -15 50 -24 95 -9 46 -46 166 -82 266 -98 274 -127 360 -122 364 2
3 40 -4 84 -14 43 -11 99 -22 124 -26 25 -4 128 -34 229 -67 190 -61 360 -108
391 -108 25 0 28 12 40 157 6 70 18 175 26 233 9 68 14 191 14 348 0 133 3
242 6 242 3 0 36 -33 73 -72z m2638 -156 c-3 -174 0 -243 14 -345 11 -71 19
-152 19 -180 0 -28 5 -90 11 -139 11 -81 13 -88 34 -88 32 0 251 62 424 119
84 28 159 51 169 51 9 0 66 11 126 25 60 14 111 23 113 22 3 -4 -18 -66 -121
-356 -52 -147 -106 -338 -106 -377 0 -8 -206 6 -299 20 l-73 11 -28 76 c-74
203 -195 348 -375 449 -120 68 -317 120 -451 120 -77 0 -77 23 3 123 35 43 63
82 63 88 0 6 4 8 8 5 4 -2 8 3 8 12 0 30 92 173 192 298 112 141 254 294 265
287 4 -2 6 -102 4 -221z m-2067 -572 c13 -24 12 -24 -6 -10 -10 8 -21 15 -23
17 -1 1 0 7 4 13 8 13 8 13 25 -20z m1450 12 c0 -4 -9 -13 -21 -20 -19 -12
-19 -11 -9 8 10 19 30 28 30 12z m-1548 -229 c-7 -82 -16 -158 -18 -170 -4
-23 -7 -23 -157 -23 -150 0 -347 -18 -426 -40 -45 -12 -81 -51 -81 -86 0 -13
13 -38 29 -56 l28 -32 124 12 c137 14 262 15 387 5 78 -6 82 -7 82 -29 l0 -24
-390 0 -390 0 21 58 c57 155 203 335 332 411 110 64 295 116 427 120 l46 1
-14 -147z m1846 116 c132 -33 264 -104 361 -194 75 -68 185 -249 207 -337 l6
-28 -386 0 -386 0 0 24 c0 23 3 24 108 31 102 7 288 2 419 -11 57 -6 63 -5 87
19 31 31 35 84 8 117 -32 39 -244 70 -490 70 l-148 0 -12 138 c-7 75 -16 152
-19 171 l-6 34 87 -7 c48 -4 122 -16 164 -27z m-1799 -79 c-4 -47 -11 -174
-15 -282 -6 -164 -10 -198 -22 -198 -12 0 -13 16 -8 98 11 156 36 425 42 451
10 45 12 15 3 -69z m1545 -155 c23 -275 25 -325 12 -325 -9 0 -16 70 -25 238
-7 130 -14 260 -16 287 -4 45 -4 46 4 15 5 -19 16 -116 25 -215z m-1620 -177
c-3 -34 -6 -63 -7 -64 -1 -1 -49 3 -107 8 -109 10 -319 3 -404 -13 -76 -14
-120 25 -83 74 8 12 42 22 107 32 136 21 148 22 332 23 l167 2 -5 -62z m2161
38 c99 -18 132 -39 120 -75 -11 -34 -36 -41 -106 -30 -72 12 -304 17 -424 9
l-80 -5 -3 64 -3 64 203 -6 c123 -3 238 -11 293 -21z m-2240 -228 c1 -2 6
-181 9 -399 l8 -396 -259 -6 c-144 -3 -340 -15 -443 -26 -101 -11 -186 -18
-189 -16 -5 6 17 431 29 540 6 50 17 136 26 193 l17 102 36 1 c20 1 110 5 201
9 150 7 558 6 565 -2z m1144 -3 c254 -53 453 -208 561 -436 29 -62 30 -68 30
-211 0 -119 -3 -148 -14 -148 -10 0 -15 21 -18 78 -6 97 -31 155 -98 226 -74
79 -150 111 -260 111 -71 0 -94 -4 -142 -27 -80 -37 -149 -105 -184 -181 -25
-54 -29 -74 -29 -152 0 -82 3 -97 33 -157 107 -217 389 -271 566 -108 l46 43
0 -31 c0 -42 -39 -85 -105 -118 -30 -14 -55 -28 -55 -31 0 -10 67 10 108 32
l43 24 -3 -117 -3 -117 -52 -3 c-46 -3 -54 -7 -80 -40 -26 -35 -29 -46 -38
-182 l-10 -145 -55 -37 c-119 -80 -279 -120 -480 -120 -126 0 -145 2 -293 41
-87 23 -173 47 -191 55 l-33 14 -6 107 c-4 60 -7 131 -7 160 0 41 -6 61 -31
98 -30 46 -32 47 -85 47 l-54 0 -1 103 c0 56 -2 109 -4 119 -3 14 4 13 44 -7
46 -23 111 -41 111 -31 0 3 -19 14 -43 24 -24 11 -60 34 -80 52 -30 26 -37 39
-37 67 l0 36 50 -47 c79 -74 126 -91 245 -91 120 0 171 21 250 100 180 179
127 475 -104 584 -48 22 -69 26 -151 26 -83 0 -102 -4 -150 -27 -118 -58 -196
-173 -207 -307 -4 -50 -10 -71 -19 -71 -11 0 -14 32 -14 163 l0 162 44 75
c119 202 313 336 566 390 109 24 339 26 439 5z m1393 -1 c61 -5 88 -11 92 -21
24 -60 62 -463 69 -716 l3 -109 -41 6 c-135 21 -373 38 -594 43 l-254 6 6 285
c4 157 7 336 7 398 l0 113 63 4 c77 6 532 -1 649 -9z m-2479 -391 c3 -219 3
-400 1 -402 -2 -2 -6 -2 -8 0 -8 10 -17 799 -8 799 5 0 11 -165 15 -397z
m1731 0 c-4 -219 -8 -400 -10 -402 -2 -2 -6 -2 -9 1 -9 8 8 798 17 798 4 0 5
-179 2 -397z m-2648 286 c-24 -133 -56 -505 -56 -665 l0 -41 -177 -12 c-98 -7
-194 -15 -213 -18 l-35 -5 68 69 c37 38 67 71 67 73 0 3 -20 6 -45 7 -93 3
-235 67 -428 191 l-118 76 133 66 c140 70 397 207 411 220 5 4 1 24 -7 45 -9
21 -14 41 -11 44 6 5 416 39 423 35 2 -1 -4 -39 -12 -85z m3755 71 c216 -17
214 -16 184 -74 -9 -16 -14 -30 -12 -32 11 -11 324 -178 431 -229 124 -60 129
-63 105 -75 -13 -7 -69 -42 -124 -78 -165 -108 -378 -196 -429 -176 -33 13
-14 -19 48 -82 l63 -65 -51 6 c-28 4 -123 12 -211 18 l-160 12 -2 95 c-5 175
-24 421 -44 553 -10 73 -19 133 -19 135 0 5 93 2 221 -8z m-2275 -414 c71 -33
128 -88 161 -154 24 -49 28 -69 28 -142 0 -73 -4 -93 -28 -142 -35 -72 -111
-141 -180 -165 -81 -28 -180 -24 -249 10 -65 32 -158 127 -158 161 0 12 -7 32
-16 45 -26 36 -15 171 18 236 81 157 266 223 424 151z m836 17 c100 -38 177
-125 204 -229 18 -66 12 -155 -12 -175 -8 -6 -14 -24 -14 -39 0 -40 -78 -122
-148 -157 -49 -24 -69 -28 -142 -28 -73 0 -93 4 -142 28 -193 95 -243 349
-100 508 66 73 144 109 239 109 44 0 90 -7 115 -17z m-1352 -450 c0 -27 3 -99
7 -160 6 -109 5 -113 -14 -113 -52 0 -103 101 -119 235 -6 56 -7 58 -16 30
-13 -44 -1 -160 24 -217 21 -50 75 -98 110 -98 15 0 18 -9 18 -55 0 -30 -2
-55 -4 -55 -45 0 -420 -36 -566 -54 -107 -13 -198 -21 -201 -18 -17 18 -69
379 -69 479 0 40 2 43 28 44 15 0 88 7 162 14 74 7 249 13 388 14 l252 1 0
-47z m2250 32 c91 -8 173 -15 184 -15 17 0 18 -6 12 -82 -13 -160 -54 -429
-68 -443 -2 -2 -87 7 -188 19 -102 13 -252 29 -335 35 -82 7 -174 14 -202 17
l-53 5 0 42 c0 50 7 62 40 72 66 19 116 106 121 210 6 122 -14 162 -24 48 -10
-116 -60 -213 -109 -213 -16 0 -18 10 -18 83 0 46 3 118 6 160 l7 77 231 0
c127 0 305 -7 396 -15z m-3267 -24 c7 -26 59 -57 110 -66 l42 -6 -40 -20 c-91
-45 -132 -117 -122 -219 9 -103 61 -168 163 -204 l38 -13 -83 -7 c-46 -4 -129
-15 -184 -26 -56 -11 -102 -18 -104 -16 -2 2 17 41 41 87 36 68 82 187 73 190
-1 0 -22 2 -47 5 -83 8 -210 44 -288 79 l-77 36 45 37 c24 20 67 61 95 90 l50
53 90 8 c164 15 192 13 198 -8z m1070 -221 c3 -129 2 -202 -3 -170 -11 80 -20
415 -11 404 5 -5 11 -110 14 -234z m1526 60 c-14 -283 -17 -299 -13 -62 4 195
8 253 19 240 1 -2 -1 -82 -6 -178z m1237 170 l101 -9 64 -66 c34 -36 78 -75
97 -87 l35 -21 -75 -38 c-70 -35 -186 -69 -290 -83 -27 -4 -48 -8 -48 -10 0
-24 42 -130 77 -195 43 -80 44 -84 22 -78 -42 10 -272 46 -314 49 l-40 3 43
13 c52 16 106 62 135 116 16 31 21 59 22 113 0 64 -3 76 -30 115 -18 25 -52
54 -80 70 l-49 27 29 6 c73 16 98 29 114 56 18 33 25 34 187 19z m-3657 -375
c10 -60 17 -111 16 -113 -1 -2 -21 5 -44 14 -139 55 -161 249 -37 325 l31 19
8 -67 c5 -38 16 -117 26 -178z m3414 181 c22 -32 33 -106 23 -160 -11 -58 -63
-109 -135 -131 -23 -7 -24 -6 -17 26 6 31 29 186 42 287 l5 42 31 -17 c16 -10
39 -31 51 -47z m-2389 -328 c3 -17 5 -32 4 -34 -2 -1 -61 3 -132 9 -95 8 -155
8 -233 -1 -119 -13 -177 -35 -216 -81 -22 -27 -27 -42 -27 -89 0 -137 100
-187 285 -143 98 24 294 47 318 38 9 -3 16 -22 19 -45 l3 -39 -130 -7 c-145
-7 -291 -27 -409 -55 l-79 -19 -18 21 c-17 22 -17 22 14 28 l32 5 -36 16 c-53
23 -106 74 -120 115 -14 43 -5 122 21 181 24 53 8 45 -31 -16 l-29 -45 -19 44
c-40 92 -47 84 96 102 110 15 220 26 398 40 22 2 95 4 161 5 l122 2 6 -32z
m1587 22 c135 -11 471 -49 477 -55 2 -1 -10 -31 -25 -65 l-28 -63 -33 53 c-39
62 -51 61 -22 -1 13 -29 20 -66 20 -110 0 -84 -23 -120 -105 -166 -58 -31 -59
-33 -27 -33 36 0 39 -6 17 -30 -15 -16 -20 -16 -91 1 -88 21 -100 27 -49 26
43 -1 65 21 65 64 0 16 8 34 20 42 52 37 67 139 28 197 -50 74 -197 108 -411
96 -64 -4 -131 -9 -147 -13 -29 -5 -30 -4 -30 31 l0 36 103 0 c57 0 164 -5
238 -10z m-1528 -276 c4 -83 3 -123 -2 -99 -5 22 -11 108 -14 190 -3 89 -2
129 2 99 5 -28 11 -113 14 -190z m1147 85 c-5 -79 -10 -161 -10 -181 0 -21 -3
-38 -7 -38 -5 0 -3 82 3 182 12 197 12 194 19 186 3 -2 1 -70 -5 -149z m-2089
80 l44 0 33 -68 c17 -38 32 -75 32 -82 0 -35 24 -94 46 -116 14 -14 24 -27 22
-29 -2 -2 -59 -31 -127 -64 l-122 -60 5 53 c14 141 17 257 7 257 -5 0 -64 -13
-131 -29 -116 -29 -308 -52 -283 -34 12 9 66 112 77 149 7 24 74 41 214 53 64
6 82 4 108 -11 17 -10 51 -18 75 -19z m569 31 c0 -30 -31 -80 -53 -85 -30 -8
-82 17 -98 46 -13 25 -14 25 41 37 61 13 110 14 110 2z m140 -13 c0 -27 -26
-67 -44 -67 -18 0 -63 46 -69 70 -5 18 0 20 54 20 55 0 59 -2 59 -23z m141 13
c26 0 24 -33 -4 -66 -29 -33 -60 -26 -88 19 -31 51 -26 61 27 53 26 -3 55 -6
65 -6z m1429 4 c0 -25 -56 -94 -77 -94 -21 0 -53 38 -53 64 0 20 6 25 33 29
54 7 97 7 97 1z m140 -10 c0 -20 -54 -74 -74 -74 -19 0 -36 30 -36 64 0 25 3
26 55 26 43 0 55 -3 55 -16z m132 5 c29 -6 54 -13 56 -14 9 -8 -33 -55 -59
-65 -38 -16 -75 -1 -89 36 -22 58 -9 64 92 43z m673 -4 c104 -10 185 -27 185
-39 0 -6 17 -46 39 -90 l38 -78 -79 7 c-44 3 -134 20 -199 36 -150 36 -150 36
-143 2 4 -26 23 -276 20 -279 0 -1 -59 26 -130 60 l-128 61 22 20 c29 26 50
68 50 99 0 14 16 59 37 100 l36 74 54 4 c31 3 61 12 70 21 9 9 27 14 42 12 14
-2 53 -7 86 -10z m-2845 -35 c0 -6 -11 -22 -25 -35 -44 -45 -62 -29 -18 17 28
29 43 35 43 18z m2318 -38 c8 -12 10 -22 5 -22 -18 0 -63 41 -63 57 0 14 3 14
22 1 12 -8 28 -24 36 -36z m-1921 -91 c13 -19 23 -37 23 -41 0 -7 -122 -22
-128 -16 -5 6 20 61 36 79 22 24 42 18 69 -22z m123 -18 c0 -30 -3 -33 -30
-33 -36 0 -36 0 -9 52 23 46 39 38 39 -19z m1266 6 c19 -38 18 -39 -16 -39
-29 0 -30 2 -30 46 0 41 2 45 16 33 8 -7 22 -25 30 -40z m162 3 c13 -24 22
-45 20 -47 -2 -2 -31 -1 -66 2 -70 7 -76 15 -36 63 34 40 53 35 82 -18z
m-1719 24 c7 -8 14 -30 18 -49 l5 -34 -63 -16 c-35 -9 -65 -14 -67 -12 -2 2
11 31 28 64 33 62 56 75 79 47z m1861 -15 c11 -17 27 -46 36 -66 l15 -37 -33
7 c-79 18 -103 31 -100 55 11 74 45 91 82 41z m-2026 0 c10 -11 20 -38 23 -62
l6 -42 -39 8 c-21 4 -54 13 -72 21 -28 11 -32 16 -23 33 13 24 59 61 76 61 6
0 20 -9 29 -19z m2186 4 c37 -19 56 -51 40 -70 -9 -11 -83 -35 -109 -35 -25 0
-6 93 23 112 14 10 13 10 46 -7z m-297 -92 c4 -2 7 -15 7 -28 0 -13 8 -31 17
-41 17 -16 14 -17 -52 -11 -39 4 -98 7 -132 7 -61 0 -63 1 -63 26 0 14 5 35
11 46 10 19 17 20 107 13 54 -4 100 -9 105 -12z m89 -20 c30 -12 71 -18 130
-18 49 0 88 -2 88 -5 -1 -22 -22 -32 -59 -28 -37 3 -41 1 -46 -22 -3 -14 -4
-67 -4 -118 2 -100 -8 -125 -39 -106 -24 15 -33 70 -22 133 19 104 12 122 -52
130 -35 5 -44 10 -46 29 -4 27 -4 27 50 5z m11 -70 c-7 -2 -19 -2 -25 0 -7 3
-2 5 12 5 14 0 19 -2 13 -5z m-1417 -26 c1 -1 9 -65 18 -142 9 -77 19 -153 22
-169 l6 -29 -91 7 c-186 14 -323 68 -421 166 -54 54 -100 124 -88 135 7 8 112
24 222 35 77 7 324 5 332 -3z m1370 -4 l51 -5 -2 -92 c-1 -51 -4 -97 -8 -103
-11 -18 -106 -69 -162 -88 -61 -21 -204 -45 -264 -45 l-44 0 7 48 c4 26 11 92
17 147 16 151 12 143 67 148 54 5 262 -1 338 -10z m-1329 -25 c-3 -8 -6 -5 -6
6 -1 11 2 17 5 13 3 -3 4 -12 1 -19z m900 -55 c-3 -10 -5 -2 -5 17 0 19 2 27
5 18 2 -10 2 -26 0 -35z m-890 -25 c-2 -13 -4 -5 -4 17 -1 22 1 32 4 23 2 -10
2 -28 0 -40z m879 -70 c-14 -128 -36 -171 -72 -142 -18 15 -18 15 4 9 19 -5
25 -1 36 27 8 18 17 63 21 101 4 37 10 67 12 67 3 0 3 -28 -1 -62z m-841 -120
c8 -21 25 -23 45 -5 8 6 6 2 -4 -10 -36 -43 -61 -2 -70 117 l-6 65 14 -75 c8
-41 17 -83 21 -92z"/>
<path d="M1543 3456 c-104 -34 -194 -114 -241 -214 -24 -50 -27 -69 -27 -162
0 -94 3 -111 28 -165 15 -33 44 -77 64 -97 l37 -38 -24 -25 c-27 -29 -24 -31
18 -10 86 43 322 59 452 30 78 -17 83 -18 75 -6 -3 5 9 24 26 43 17 18 45 62
63 98 29 60 31 73 31 170 0 93 -3 112 -27 162 -37 80 -107 152 -186 190 -56
28 -77 33 -156 35 -57 2 -107 -2 -133 -11z m267 -55 c25 -13 62 -37 82 -53 77
-60 137 -203 124 -297 -7 -55 -35 -141 -45 -141 -4 0 -44 13 -89 30 -159 58
-328 62 -492 11 l-58 -18 -11 41 c-18 72 -19 99 -10 159 22 136 116 245 249
288 14 5 66 7 115 6 71 -3 100 -8 135 -26z m-67 -456 c84 -15 182 -47 202 -66
6 -6 -1 -20 -20 -39 l-30 -30 -50 16 c-74 24 -260 24 -350 0 l-69 -19 -33 38
c-18 21 -33 44 -33 51 0 24 147 60 256 63 23 0 80 -6 127 -14z"/>
<path d="M1639 3108 c-1 -7 -3 -25 -4 -40 -3 -18 2 -27 13 -30 37 -10 56 44
25 68 -23 17 -33 17 -34 2z"/>
<path d="M1553 2919 c-18 -5 -33 -11 -33 -12 0 -2 57 -3 126 -3 89 0 120 2
107 10 -25 13 -161 17 -200 5z"/>
<path d="M2494 3320 c-61 -29 -96 -55 -138 -100 -31 -34 -56 -65 -56 -70 0 -5
35 19 79 54 43 35 111 83 150 106 39 23 71 44 71 46 0 11 -33 0 -106 -36z"/>
<path d="M3435 3318 c61 -38 121 -81 211 -151 45 -35 24 1 -35 61 -58 59 -148
112 -216 127 -22 5 -10 -5 40 -37z"/>
<path d="M3010 2514 c0 -3 20 -29 45 -56 49 -55 53 -68 28 -93 -22 -22 -62
-14 -118 25 -40 28 -67 27 -49 -1 16 -26 100 -69 135 -69 49 0 84 39 75 85 -9
45 -116 146 -116 109z"/>
<path d="M3138 2025 c-2 -89 -6 -110 -18 -113 -11 -2 -23 15 -39 50 -25 58
-27 57 -50 -29 -22 -81 -64 -38 -77 78 -8 75 -16 93 -25 59 -13 -45 -9 -119 7
-160 26 -64 77 -80 112 -35 17 21 21 23 32 10 7 -8 26 -15 42 -15 24 0 32 6
45 37 17 42 12 125 -12 190 -13 37 -13 34 -17 -72z"/>
<path d="M4223 3456 c-68 -22 -127 -61 -181 -121 -131 -143 -133 -355 -5 -512
19 -24 31 -48 27 -55 -5 -8 0 -9 17 -5 158 43 427 31 528 -23 13 -7 21 -7 21
-1 0 6 -9 15 -21 21 -20 11 -19 13 20 55 176 191 112 507 -126 621 -48 23 -74
28 -148 31 -57 2 -105 -2 -132 -11z m242 -47 c72 -27 153 -101 190 -176 27
-52 30 -67 30 -153 -1 -52 -6 -107 -12 -121 l-12 -27 -57 19 c-155 51 -323 47
-490 -12 -46 -16 -88 -27 -93 -25 -5 3 -17 35 -26 71 -49 181 54 376 229 431
65 20 177 17 241 -7z m91 -475 c84 -22 91 -27 72 -56 -36 -53 -59 -70 -87 -63
-154 40 -278 43 -384 11 -56 -17 -64 -15 -94 24 l-23 28 63 25 c55 22 114 37
197 51 43 7 192 -5 256 -20z"/>
<path d="M4329 3107 c-27 -20 -31 -51 -9 -65 11 -7 20 -8 20 -2 0 5 6 7 14 4
11 -4 14 1 11 23 -2 15 -4 34 -4 41 -1 15 -11 15 -32 -1z"/>
<path d="M4263 2919 c-18 -5 -33 -11 -33 -13 0 -1 55 -3 122 -2 106 0 118 2
92 13 -34 14 -135 15 -181 2z"/>
<path d="M2544 2779 c-3 -6 0 -18 9 -26 12 -12 18 -13 35 -2 16 10 18 16 10
26 -13 16 -44 17 -54 2z"/>
<path d="M3408 2791 c-5 -33 18 -48 40 -25 14 15 16 44 3 44 -5 0 -16 3 -24 6
-10 4 -16 -4 -19 -25z"/>
<path d="M3980 1530 c0 -5 5 -10 11 -10 5 0 7 5 4 10 -3 6 -8 10 -11 10 -2 0
-4 -4 -4 -10z"/>
<path d="M1740 5046 c0 -2 8 -10 18 -17 15 -13 16 -12 3 4 -13 16 -21 21 -21
13z"/>
<path d="M5001 2255 c0 -5 6 -21 14 -35 8 -14 14 -20 14 -15 0 6 -6 21 -14 35
-8 14 -14 21 -14 15z"/>
<path d="M3963 1425 c-26 -18 -38 -66 -24 -93 15 -28 64 -46 89 -33 53 28 23
141 -37 141 -3 0 -16 -7 -28 -15z m51 -41 c13 -34 7 -54 -18 -54 -30 0 -40 14
-32 46 7 27 40 33 50 8z"/>
<path d="M5597 3259 c7 -7 15 -10 18 -7 3 3 -2 9 -12 12 -14 6 -15 5 -6 -5z"/>
</g>
</svg>
